<svg id="Layer_1" data-name="Layer 1" xmlns="http://www.w3.org/2000/svg" viewBox="0 0 1100 407.21"><defs><style>.cls-1{fill:#fff;}.cls-2{fill:#ccc;}</style></defs><path class="cls-1" d="M606.91,799.87v-179h44V796.29c0,11.07,4.23,14.33,12.69,14.33a48.34,48.34,0,0,0,15.3-2.29v30.28c-9.11,3.58-16.92,4.89-29,4.89C619.93,843.5,606.91,830.47,606.91,799.87Z" transform="translate(-200 -546.39)"/><path class="cls-1" d="M699.69,791.41V719.79H677.88V685.94h21.81v-33.2l43.94-13v46.22H782.7l-2.61,33.85H743.63v68.69c0,16.93,7.49,22.14,24.1,22.14a57.53,57.53,0,0,0,18.87-3.26v30.27c-9.77,3.91-20.5,5.87-34.5,5.87C716.29,843.5,699.69,823.64,699.69,791.41Z" transform="translate(-200 -546.39)"/><path class="cls-1" d="M804.2,685.94h40.69l2,15.95c14-8.79,36.12-16.6,56.31-19.2v33.2c-17.9,2.61-42.32,9.44-55,16.6V840.24H804.2Z" transform="translate(-200 -546.39)"/><path class="cls-1" d="M912.6,782.62V685.94h43.95v95.7c0,20.84,9.76,29.62,29.94,29.62a53,53,0,0,0,37.44-16V685.94h43.94v154.3h-40.69l-1.63-14.65c-13,10.41-30.26,17.91-54.35,17.91C934.08,843.5,912.6,822.66,912.6,782.62Z" transform="translate(-200 -546.39)"/><path class="cls-1" d="M1108.91,718.5h-23.12l3.91-32.56h63.15v154.3h-43.94Zm-3.58-95.38h47.85v34.5h-47.85Z" transform="translate(-200 -546.39)"/><path class="cls-1" d="M1173.69,835V798.57c15,6.18,35.81,9.44,52.09,9.44,21.48,0,29.62-1.63,29.62-10.74,0-10.42-14-12.7-40.7-21.48-28.31-9.44-43.93-20.51-43.93-47.2,0-29.3,20.18-45.9,68-45.9,18.88,0,36.78,3.25,48.5,7.16V726c-11.72-5.53-28.32-8.46-41.35-8.46-18.55,0-30.59,1.63-30.59,10.41,0,9.44,11.39,11.07,36.78,18.89,36.79,11.39,47.86,23.1,47.86,49.8,0,30.92-23.44,46.88-68.36,46.88C1208.52,843.5,1186.39,839.91,1173.69,835Z" transform="translate(-200 -546.39)"/><path class="cls-1" d="M731.1,927.9c-2.62,0-3.63-1-3.63-2.53,0-2.21,1.41-2.72,3.63-2.72h18.45v19.06c0,5.24-1,11-10.08,11H724.64c-13.41,0-21.87-2.52-21.87-17.85V906.42c0-15.33,8.46-17.85,22.48-17.85h14.22c9.07,0,10.08,5.85,10.08,11.19,0,2.42-.81,3.63-2.62,3.63-1.61,0-2.62-.9-2.62-3.42,0-4.34-1.11-6.16-5.55-6.16H725.25c-12.2,0-17.24,1.12-17.24,12.71v28.23c0,11.6,5,12.71,16.63,12.71h14.12c4.44,0,5.55-1.72,5.55-6.06V927.9Z" transform="translate(-200 -546.39)"/><path class="cls-1" d="M849.88,950.18c0,1.92-1.12,3.22-2.72,3.22s-2.53-1.71-2.53-3.22c0-1.31-4.54-22.69-13.91-29.95h-19v29.95c0,1.61-.51,3.22-2.73,3.22-1,0-2.52-.5-2.52-3.22v-58c0-2,.5-3.63,2.41-3.63h18.16c13.4,0,22,2.93,22,15.63,0,8.37-4.33,13.51-11.8,15C844.63,926.38,849.88,948.87,849.88,950.18Zm-6.06-45.47c0-9.08-5.33-10.39-16.73-10.39H811.77V915h15.32C838.89,915,843.82,913.48,843.82,904.71Z" transform="translate(-200 -546.39)"/><path class="cls-1" d="M903.42,929.71V911.56c0-15.22,10-23.9,23.39-23.9s23.39,8.68,23.39,23.9v18.15c0,15.22-10.08,23.9-23.39,23.9S903.42,944.93,903.42,929.71Zm5.24-18.05v18c0,11.79,6.55,18.75,18.15,18.75s18.15-7,18.15-18.75v-18c0-11.69-6.56-18.75-18.15-18.75S908.66,900,908.66,911.66Z" transform="translate(-200 -546.39)"/><path class="cls-1" d="M1050.32,887.86c2,0,2.52,1.72,2.52,3.33v38.52c0,15.22-10.08,23.9-23.39,23.9s-23.39-8.68-23.39-23.9V891.19c0-2.92,1.61-3.33,2.62-3.33s2.62.41,2.62,3.23v38.52c0,11.79,6.55,18.75,18.15,18.75s18.15-7,18.15-18.75V891.09C1047.6,888.37,1049.22,887.86,1050.32,887.86Z" transform="translate(-200 -546.39)"/><path class="cls-1" d="M1113.14,953.4c-1,0-2.52-.5-2.52-3.22v-58c0-2,.5-3.63,2.42-3.63h18.25c13.31,0,21.88,2.93,21.88,15.63,0,10.18-6.55,15.53-17.44,15.53h-19.87v30.45C1115.86,951.79,1115.36,953.4,1113.14,953.4Zm34.78-49.2c0-9.07-5.34-10.39-16.63-10.39h-15.43v20.68h15.43C1143,914.49,1147.92,913,1147.92,904.2Z" transform="translate(-200 -546.39)"/><polygon class="cls-1" points="427.2 353.82 217.17 0 217.17 82.9 352.88 311.51 427.2 353.82"/><polygon class="cls-1" points="0 353.82 74.33 311.51 210.03 82.91 210.03 0.03 0 353.82"/><polygon class="cls-2" points="105.53 293.74 210.03 234.25 210.03 124.13 105.53 293.74"/><polygon class="cls-2" points="321.67 293.74 217.17 124.13 217.17 234.25 321.67 293.74"/></svg>